<mxfile host="app.diagrams.net" agent="Mozilla/5.0 (Windows NT 10.0; Win64; x64) AppleWebKit/537.36 (KHTML, like Gecko) Chrome/129.0.0.0 Safari/537.36" version="24.7.14">
  <diagram id="R2lEEEUBdFMjLlhIrx00" name="Page-1">
    <mxGraphModel dx="1280" dy="502" grid="1" gridSize="10" guides="1" tooltips="1" connect="1" arrows="1" fold="1" page="0" pageScale="1" pageWidth="850" pageHeight="1100" math="0" shadow="0" extFonts="Permanent Marker^https://fonts.googleapis.com/css?family=Permanent+Marker">
      <root>
        <mxCell id="0" />
        <mxCell id="1" parent="0" />
        <mxCell id="p9ojEQhiztoO5MGecZOt-8" value="Blog Post" style="ellipse;whiteSpace=wrap;html=1;aspect=fixed;" vertex="1" parent="1">
          <mxGeometry x="250" y="158" width="80" height="80" as="geometry" />
        </mxCell>
        <mxCell id="p9ojEQhiztoO5MGecZOt-9" value="LEVEL 0" style="text;html=1;align=center;verticalAlign=middle;resizable=0;points=[];autosize=1;strokeColor=none;fillColor=none;" vertex="1" parent="1">
          <mxGeometry x="255" y="60" width="70" height="30" as="geometry" />
        </mxCell>
        <mxCell id="p9ojEQhiztoO5MGecZOt-22" value="Writter" style="rounded=0;whiteSpace=wrap;html=1;" vertex="1" parent="1">
          <mxGeometry x="-90" y="168" width="120" height="60" as="geometry" />
        </mxCell>
        <mxCell id="p9ojEQhiztoO5MGecZOt-23" value="Viewer" style="rounded=0;whiteSpace=wrap;html=1;" vertex="1" parent="1">
          <mxGeometry x="560" y="168" width="120" height="60" as="geometry" />
        </mxCell>
        <mxCell id="p9ojEQhiztoO5MGecZOt-26" value="" style="endArrow=classic;html=1;rounded=0;exitX=1;exitY=0.5;exitDx=0;exitDy=0;entryX=0;entryY=0.5;entryDx=0;entryDy=0;" edge="1" parent="1" source="p9ojEQhiztoO5MGecZOt-22" target="p9ojEQhiztoO5MGecZOt-8">
          <mxGeometry relative="1" as="geometry">
            <mxPoint x="250" y="260" as="sourcePoint" />
            <mxPoint x="350" y="260" as="targetPoint" />
          </mxGeometry>
        </mxCell>
        <mxCell id="p9ojEQhiztoO5MGecZOt-27" value="Categorized" style="edgeLabel;resizable=0;html=1;;align=center;verticalAlign=middle;" connectable="0" vertex="1" parent="p9ojEQhiztoO5MGecZOt-26">
          <mxGeometry relative="1" as="geometry" />
        </mxCell>
        <mxCell id="p9ojEQhiztoO5MGecZOt-28" value="Update" style="endArrow=classic;html=1;rounded=0;exitX=1;exitY=0.25;exitDx=0;exitDy=0;entryX=0.063;entryY=0.213;entryDx=0;entryDy=0;entryPerimeter=0;" edge="1" parent="1" source="p9ojEQhiztoO5MGecZOt-22" target="p9ojEQhiztoO5MGecZOt-8">
          <mxGeometry relative="1" as="geometry">
            <mxPoint x="250" y="260" as="sourcePoint" />
            <mxPoint x="350" y="260" as="targetPoint" />
          </mxGeometry>
        </mxCell>
        <mxCell id="p9ojEQhiztoO5MGecZOt-30" value="" style="endArrow=classic;html=1;rounded=0;exitX=0;exitY=0.5;exitDx=0;exitDy=0;" edge="1" parent="1" source="p9ojEQhiztoO5MGecZOt-23" target="p9ojEQhiztoO5MGecZOt-8">
          <mxGeometry relative="1" as="geometry">
            <mxPoint x="540" y="170" as="sourcePoint" />
            <mxPoint x="350" y="260" as="targetPoint" />
          </mxGeometry>
        </mxCell>
        <mxCell id="p9ojEQhiztoO5MGecZOt-31" value="React" style="edgeLabel;resizable=0;html=1;;align=center;verticalAlign=middle;" connectable="0" vertex="1" parent="p9ojEQhiztoO5MGecZOt-30">
          <mxGeometry relative="1" as="geometry" />
        </mxCell>
        <mxCell id="p9ojEQhiztoO5MGecZOt-32" value="" style="endArrow=classic;html=1;rounded=0;exitX=0;exitY=0.75;exitDx=0;exitDy=0;entryX=0.938;entryY=0.75;entryDx=0;entryDy=0;entryPerimeter=0;" edge="1" parent="1" source="p9ojEQhiztoO5MGecZOt-23" target="p9ojEQhiztoO5MGecZOt-8">
          <mxGeometry relative="1" as="geometry">
            <mxPoint x="250" y="260" as="sourcePoint" />
            <mxPoint x="340" y="220" as="targetPoint" />
          </mxGeometry>
        </mxCell>
        <mxCell id="p9ojEQhiztoO5MGecZOt-33" value="Comment" style="edgeLabel;resizable=0;html=1;;align=center;verticalAlign=middle;" connectable="0" vertex="1" parent="p9ojEQhiztoO5MGecZOt-32">
          <mxGeometry relative="1" as="geometry" />
        </mxCell>
        <mxCell id="p9ojEQhiztoO5MGecZOt-34" value="" style="endArrow=classic;html=1;rounded=0;entryX=0.9;entryY=0.25;entryDx=0;entryDy=0;entryPerimeter=0;exitX=0;exitY=0.25;exitDx=0;exitDy=0;" edge="1" parent="1" source="p9ojEQhiztoO5MGecZOt-23" target="p9ojEQhiztoO5MGecZOt-8">
          <mxGeometry relative="1" as="geometry">
            <mxPoint x="550" y="180" as="sourcePoint" />
            <mxPoint x="350" y="260" as="targetPoint" />
          </mxGeometry>
        </mxCell>
        <mxCell id="p9ojEQhiztoO5MGecZOt-35" value="Share" style="edgeLabel;resizable=0;html=1;;align=center;verticalAlign=middle;" connectable="0" vertex="1" parent="p9ojEQhiztoO5MGecZOt-34">
          <mxGeometry relative="1" as="geometry" />
        </mxCell>
        <mxCell id="p9ojEQhiztoO5MGecZOt-39" value="" style="endArrow=classic;html=1;rounded=0;exitX=1.017;exitY=0.9;exitDx=0;exitDy=0;entryX=0.075;entryY=0.788;entryDx=0;entryDy=0;entryPerimeter=0;exitPerimeter=0;" edge="1" parent="1" source="p9ojEQhiztoO5MGecZOt-22">
          <mxGeometry relative="1" as="geometry">
            <mxPoint x="29" y="211" as="sourcePoint" />
            <mxPoint x="255" y="219.03999999999996" as="targetPoint" />
            <Array as="points" />
          </mxGeometry>
        </mxCell>
        <mxCell id="p9ojEQhiztoO5MGecZOt-40" value="Described" style="edgeLabel;resizable=0;html=1;;align=center;verticalAlign=middle;" connectable="0" vertex="1" parent="p9ojEQhiztoO5MGecZOt-39">
          <mxGeometry relative="1" as="geometry">
            <mxPoint x="-14" as="offset" />
          </mxGeometry>
        </mxCell>
      </root>
    </mxGraphModel>
  </diagram>
</mxfile>
